<?xml version="1.0" standalone="no"?>
<!DOCTYPE svg PUBLIC "-//W3C//DTD SVG 20010904//EN"
 "http://www.w3.org/TR/2001/REC-SVG-20010904/DTD/svg10.dtd">
<svg version="1.0" xmlns="http://www.w3.org/2000/svg"
 width="77.000000pt" height="78.000000pt" viewBox="0 0 77.000000 78.000000"
 preserveAspectRatio="xMidYMid meet">

<g transform="translate(0.000000,78.000000) scale(0.100000,-0.100000)"
fill="#000000" stroke="none">
<path d="M340 595 c-19 -22 -4 -64 25 -71 31 -8 55 10 55 40 0 43 -53 63 -80
31z m68 -21 c6 -40 -48 -56 -62 -18 -10 26 5 45 33 42 17 -2 27 -10 29 -24z"/>
<path d="M227 543 c-16 -16 -4 -31 43 -53 49 -23 50 -25 50 -67 0 -24 -3 -43
-6 -43 -3 0 -32 15 -65 33 -58 31 -60 32 -74 13 -14 -19 -10 -22 73 -67 l87
-48 5 -88 c5 -86 6 -88 30 -88 l25 0 3 158 3 157 77 -1 c91 -1 121 -8 136 -32
15 -25 -17 -49 -53 -39 -14 4 -48 7 -76 7 -43 0 -50 -3 -50 -20 0 -16 8 -21
37 -23 21 -2 53 1 73 7 43 12 62 6 71 -21 11 -35 -14 -48 -71 -36 -62 12 -115
-3 -95 -27 14 -17 56 -19 111 -6 23 5 43 4 55 -2 17 -9 17 -9 6 5 -9 11 -10
18 -2 23 15 9 12 51 -5 65 -14 12 -14 15 1 31 31 34 -13 79 -77 79 -11 0 -19
7 -19 15 0 12 -16 15 -83 15 -74 0 -90 3 -138 30 -58 32 -62 33 -72 23z m203
-63 c47 0 80 -4 80 -10 0 -6 -28 -10 -65 -10 l-65 0 0 -155 c0 -97 -4 -155
-10 -155 -6 0 -10 33 -10 79 l0 79 -87 47 c-103 55 -97 51 -88 64 4 7 32 -2
76 -25 l70 -35 -3 58 c-3 58 -3 58 -51 84 -26 14 -44 28 -40 32 3 4 30 -6 60
-23 46 -26 62 -30 133 -30z m105 -107 l40 -7 -30 -7 c-57 -13 -105 -10 -105 6
0 17 30 19 95 8z m15 -92 c22 -7 19 -9 -22 -16 -50 -8 -81 1 -57 16 16 10 44
10 79 0z"/>
</g>
</svg>
