<?xml version="1.0" standalone="no"?>
<!DOCTYPE svg PUBLIC "-//W3C//DTD SVG 20010904//EN"
 "http://www.w3.org/TR/2001/REC-SVG-20010904/DTD/svg10.dtd">
<svg version="1.0" xmlns="http://www.w3.org/2000/svg"
 width="91.000000pt" height="96.000000pt" viewBox="0 0 91.000000 96.000000"
 preserveAspectRatio="xMidYMid meet">

<g transform="translate(0.000000,96.000000) scale(0.100000,-0.100000)"
fill="#000000" stroke="none">
<path d="M392 593 c-22 -16 -68 -49 -101 -75 -54 -42 -61 -52 -61 -82 0 -25 7
-40 26 -55 24 -19 40 -21 150 -21 l124 0 88 71 c48 39 89 75 90 80 2 5 -42 9
-97 9 l-101 0 0 30 c0 34 -30 70 -58 70 -11 0 -37 -12 -60 -27z m90 0 c35 -32
23 -67 -39 -114 -56 -44 -94 -69 -81 -55 13 15 -14 66 -38 72 -13 3 -24 9 -24
13 1 11 132 101 148 101 9 0 24 -7 34 -17z m198 -97 c-8 -8 -46 -40 -85 -70
l-70 -56 -122 0 c-110 0 -125 2 -143 20 -38 38 -17 103 34 103 35 0 48 -13 55
-59 l6 -36 70 55 70 56 100 1 c86 0 97 -2 85 -14z"/>
<path d="M275 467 c-20 -16 -17 -61 5 -63 9 0 10 1 3 3 -7 3 -13 15 -13 29 0
29 33 34 49 7 10 -17 10 -17 11 -1 0 25 -33 40 -55 25z"/>
</g>
</svg>
