<?xml version="1.0" standalone="no"?>
<!DOCTYPE svg PUBLIC "-//W3C//DTD SVG 20010904//EN"
 "http://www.w3.org/TR/2001/REC-SVG-20010904/DTD/svg10.dtd">
<svg version="1.0" xmlns="http://www.w3.org/2000/svg"
 width="79.000000pt" height="71.000000pt" viewBox="0 0 79.000000 71.000000"
 preserveAspectRatio="xMidYMid meet">

<g transform="translate(0.000000,71.000000) scale(0.100000,-0.100000)"
fill="#000000" stroke="none">
<path d="M264 445 c-28 -14 -61 -37 -75 -51 -27 -30 -12 -24 41 17 50 38 103
52 174 47 67 -6 116 -26 159 -66 15 -14 27 -21 27 -15 0 13 -64 57 -112 78
-58 23 -153 19 -214 -10z"/>
<path d="M295 381 c-40 -18 -87 -61 -68 -61 5 0 18 9 28 20 27 30 99 53 146
47 23 -3 64 -20 93 -37 41 -26 47 -28 31 -10 -50 57 -156 75 -230 41z"/>
<path d="M324 301 c-18 -11 -35 -25 -40 -32 -4 -7 8 -2 26 11 45 32 98 32 141
1 17 -13 30 -18 27 -11 -6 19 -68 50 -98 50 -14 0 -39 -9 -56 -19z"/>
<path d="M357 214 c-15 -16 -7 -53 14 -59 30 -10 58 19 43 43 -12 18 -45 28
-57 16z m46 -18 c7 -17 -18 -40 -33 -31 -5 3 -10 15 -10 26 0 23 35 27 43 5z"/>
</g>
</svg>
